# xmcd
#
# Track frame offsets: 
#        150
#        9785
#        20318
#        32917
#        45877
#        58228
#        69843
#        81942
#        91307
#        102556
#
# Disc length: 1552 seconds
#
# Revision: 0
# Processed by: cddbd v1.5.2PL0 Copyright (c) Steve Scherf et al.
# Submitted via: ExactAudioCopy v0.99pb4
#
DISCID=6f060e0a
DTITLE=George Jones - The Great Lost Hits
DYEAR=2012
DGENRE=Classic Country
TTITLE0=The Race is On
TTITLE1=Walk Through This World With Me
TTITLE2=She Thinks i Still Care
TTITLE3=When the Grass Grows Over Me
TTITLE4=The Window Up Above
TTITLE5=I'll Share My World With You
TTITLE6=White Lightning
TTITLE7=Love Bug
TTITLE8=Tender Years
TTITLE9=A Good Year for the Roses
EXTD=
EXTT0=
EXTT1=
EXTT2=
EXTT3=
EXTT4=
EXTT5=
EXTT6=
EXTT7=
EXTT8=
EXTT9=
PLAYORDER=
